<svg xmlns="http://www.w3.org/2000/svg" viewBox="0 0 240 240" aria-label="Pre-RC ecosystem average"><style>.axis{stroke:#b9bfd0;stroke-width:1;}.ring{fill:none;stroke:#d8dce8;stroke-width:1;}.shape{fill:rgba(20,20,20,.10);stroke:#101010;stroke-width:1.7;}.tiny{font:9px sans-serif;fill:#505a73;}</style><polygon points="120.0,102.0 135.6,111.0 135.6,129.0 120.0,138.0 104.4,129.0 104.4,111.0" class="ring" /><polygon points="120.0,84.0 151.2,102.0 151.2,138.0 120.0,156.0 88.8,138.0 88.8,102.0" class="ring" /><polygon points="120.0,66.0 166.8,93.0 166.8,147.0 120.0,174.0 73.2,147.0 73.2,93.0" class="ring" /><polygon points="120.0,48.0 182.4,84.0 182.4,156.0 120.0,192.0 57.6,156.0 57.6,84.0" class="ring" /><line x1="120.0" y1="120.0" x2="120.0" y2="48.0" class="axis" /><line x1="120.0" y1="120.0" x2="182.4" y2="84.0" class="axis" /><line x1="120.0" y1="120.0" x2="182.4" y2="156.0" class="axis" /><line x1="120.0" y1="120.0" x2="120.0" y2="192.0" class="axis" /><line x1="120.0" y1="120.0" x2="57.6" y2="156.0" class="axis" /><line x1="120.0" y1="120.0" x2="57.6" y2="84.0" class="axis" /><polygon points="120.0,71.8 159.7,97.1 159.1,142.6 120.0,167.5 74.1,146.5 82.4,98.3" class="shape" /><text x="120.0" y="30.0" class="tiny" text-anchor="middle">Product</text><text x="197.9" y="75.0" class="tiny" text-anchor="middle">Arch</text><text x="197.9" y="165.0" class="tiny" text-anchor="middle">Run</text><text x="120.0" y="210.0" class="tiny" text-anchor="middle">QA</text><text x="42.1" y="165.0" class="tiny" text-anchor="middle">Ops</text><text x="42.1" y="75.0" class="tiny" text-anchor="middle">Market</text></svg>